<?xml version="1.0" standalone="no"?>
<!DOCTYPE svg PUBLIC "-//W3C//DTD SVG 20010904//EN"
 "http://www.w3.org/TR/2001/REC-SVG-20010904/DTD/svg10.dtd">
<svg version="1.0" xmlns="http://www.w3.org/2000/svg"
 width="689.000000pt" height="689.000000pt" viewBox="0 0 689.000000 689.000000"
 preserveAspectRatio="xMidYMid meet">
<metadata>
Created by potrace 1.14, written by Peter Selinger 2001-2017
</metadata>
<g transform="translate(0.000000,689.000000) scale(0.100000,-0.100000)"
fill="#000000" stroke="none">
<path d="M2 5178 l3 -1713 383 -2 382 -1 0 1180 0 1180 98 -124 c53 -69 142
-182 196 -251 55 -70 107 -137 117 -149 10 -13 48 -62 86 -110 92 -117 551
-702 637 -813 13 -16 61 -78 107 -136 46 -58 95 -121 109 -139 13 -17 131
-168 262 -335 l238 -303 390 0 390 0 0 1714 0 1714 -390 0 -390 0 0 -1172 0
-1171 -63 80 c-34 44 -74 95 -89 114 -15 19 -73 93 -130 164 -231 292 -287
364 -358 455 -41 52 -77 97 -80 100 -3 3 -46 57 -95 120 -49 63 -92 117 -95
120 -3 3 -37 46 -75 95 -38 50 -75 97 -82 105 -12 14 -468 591 -518 655 -13
17 -78 99 -145 183 l-121 152 -384 0 -385 0 2 -1712z"/>
<path d="M3490 5176 l0 -1714 385 -1 385 0 2 1174 3 1173 185 -235 c102 -130
192 -244 200 -254 18 -21 42 -53 73 -93 35 -46 141 -180 147 -186 3 -3 27 -34
55 -70 27 -36 55 -72 62 -80 12 -15 122 -155 178 -226 98 -125 411 -523 429
-545 11 -14 32 -40 46 -59 14 -18 54 -70 90 -115 96 -122 117 -148 208 -264
45 -58 93 -119 107 -136 13 -16 33 -42 44 -56 l21 -27 390 0 389 -1 -57 77
c-31 42 -59 79 -62 82 -4 3 -19 23 -35 45 -17 22 -32 42 -35 45 -3 3 -34 43
-70 90 -35 47 -68 90 -73 95 -4 6 -57 75 -118 155 -61 80 -118 154 -127 165
-10 11 -28 36 -42 55 -14 19 -30 42 -37 50 -15 18 -326 422 -438 570 -44 58
-84 110 -90 116 -5 7 -18 23 -28 37 -19 26 -168 220 -190 247 -6 9 -39 51 -73
95 -78 103 -398 521 -429 560 -12 17 -181 236 -374 488 l-352 457 -384 0 -385
0 0 -1714z"/>
<path d="M1359 3411 c0 -9 -1 -544 -1 -1188 -1 -645 -3 -1173 -4 -1173 -2 0
-36 44 -76 97 -40 54 -78 104 -85 113 -7 8 -95 125 -196 260 l-184 245 -397 0
c-218 0 -396 -2 -396 -5 0 -4 139 -188 279 -370 10 -14 132 -173 270 -355 138
-181 257 -337 264 -345 6 -8 30 -40 52 -70 21 -30 42 -57 45 -60 6 -5 208
-268 250 -326 14 -19 59 -79 100 -134 l75 -99 391 -1 391 0 -1 1713 -1 1712
-387 1 c-351 1 -388 0 -389 -15z"/>
<path d="M2370 1714 l0 -1714 390 0 390 0 0 1143 1 1142 22 -25 c12 -14 34
-41 49 -60 15 -19 81 -102 147 -185 l120 -150 1 -932 0 -933 390 0 390 0 0
440 0 441 126 -158 c69 -87 137 -173 152 -192 15 -19 115 -145 222 -280 l196
-246 402 -3 403 -2 -106 137 c-58 76 -164 215 -235 308 -72 94 -187 245 -257
337 -71 91 -175 229 -234 305 -101 132 -238 312 -532 697 l-137 179 0 161 1
161 22 -25 c12 -14 36 -43 52 -64 32 -41 150 -189 196 -246 15 -19 51 -64 79
-100 29 -36 64 -81 80 -100 15 -19 112 -141 214 -270 102 -129 213 -269 246
-310 33 -41 155 -194 270 -340 116 -146 216 -272 223 -280 7 -8 55 -69 107
-135 52 -66 105 -134 119 -151 32 -38 37 -45 134 -166 l77 -98 401 0 400 0
-94 123 c-52 67 -135 176 -186 242 -50 66 -97 127 -104 135 -6 9 -54 72 -106
140 -52 69 -104 137 -115 151 -12 14 -32 41 -46 59 -14 18 -41 54 -61 79 -19
25 -80 105 -134 176 -54 72 -127 166 -160 210 -34 44 -110 143 -168 220 -58
77 -110 145 -114 150 -5 6 -91 118 -191 250 -101 132 -189 247 -195 255 -7 8
-62 80 -122 160 -61 80 -113 147 -116 150 -3 3 -25 32 -50 65 -24 33 -48 65
-54 71 -5 6 -48 62 -95 124 -112 148 -397 521 -413 540 -7 8 -29 39 -50 68
-21 28 -48 54 -60 57 -12 2 -188 3 -392 2 l-370 -2 -5 -218 -5 -219 -70 94
c-38 51 -74 98 -80 104 -5 6 -49 63 -97 126 l-87 115 -390 0 -391 0 0 -1713z"/>
</g>
</svg>
